<?xml version="1.0" encoding="UTF-8" standalone="no"?>
<!-- Created with Inkscape (http://www.inkscape.org/) -->

<svg
   xmlns:dc="http://purl.org/dc/elements/1.1/"
   xmlns:cc="http://creativecommons.org/ns#"
   xmlns:rdf="http://www.w3.org/1999/02/22-rdf-syntax-ns#"
   xmlns:svg="http://www.w3.org/2000/svg"
   xmlns="http://www.w3.org/2000/svg"
   xmlns:sodipodi="http://sodipodi.sourceforge.net/DTD/sodipodi-0.dtd"
   xmlns:inkscape="http://www.inkscape.org/namespaces/inkscape"
   width="226"
   height="48"
   id="svg4232"
   version="1.1"
   inkscape:version="0.91 r13725"
   viewBox="0 0 226 48"
   sodipodi:docname="DMODE3L.svg">
  <defs
     id="defs4234" />
  <sodipodi:namedview
     id="base"
     pagecolor="#ffffff"
     bordercolor="#666666"
     borderopacity="1.0"
     inkscape:pageopacity="0.0"
     inkscape:pageshadow="2"
     inkscape:zoom="2.4748737"
     inkscape:cx="150.66797"
     inkscape:cy="0.89682172"
     inkscape:current-layer="layer1"
     showgrid="true"
     inkscape:grid-bbox="true"
     inkscape:document-units="px"
     showguides="true"
     inkscape:guide-bbox="true"
     inkscape:window-width="1311"
     inkscape:window-height="744"
     inkscape:window-x="55"
     inkscape:window-y="24"
     inkscape:window-maximized="1">
    <sodipodi:guide
       position="18.182746,43.234529"
       orientation="0,1"
       id="guide4784" />
    <sodipodi:guide
       position="27.476149,5.6568542"
       orientation="0,1"
       id="guide4786" />
    <sodipodi:guide
       position="5.2527932,22.223356"
       orientation="1,0"
       id="guide4788" />
    <sodipodi:guide
       position="55.356359,43.234529"
       orientation="1,0"
       id="guide4790" />
  </sodipodi:namedview>
  <metadata
     id="metadata4237">
    <rdf:RDF>
      <cc:Work
         rdf:about="">
        <dc:format>image/svg+xml</dc:format>
        <dc:type
           rdf:resource="http://purl.org/dc/dcmitype/StillImage" />
        <dc:title></dc:title>
      </cc:Work>
    </rdf:RDF>
  </metadata>
  <g
     id="layer1"
     inkscape:label="Layer 1"
     inkscape:groupmode="layer">
    <text
       xml:space="preserve"
       style="font-style:normal;font-weight:normal;font-size:40px;line-height:125%;font-family:sans-serif;letter-spacing:0px;word-spacing:0px;fill:#000000;fill-opacity:1;stroke:none;stroke-width:1px;stroke-linecap:butt;stroke-linejoin:miter;stroke-opacity:1"
       x="61.672234"
       y="38.020306"
       id="text4780"
       sodipodi:linespacing="125%"><tspan
         sodipodi:role="line"
         id="tspan4782"
         x="61.672234"
         y="38.020306"
         style="font-style:normal;font-variant:normal;font-weight:normal;font-stretch:normal;font-family:Laksaman;-inkscape-font-specification:Laksaman">DMOD3L</tspan></text>
    <path
       style="fill:#00ffff;fill-opacity:0.1835749;stroke:#000000;stroke-width:0.12121831;stroke-linecap:round;stroke-linejoin:round;stroke-miterlimit:4;stroke-dasharray:none;stroke-opacity:1"
       d="m 20.077715,40.093554 c -1.887739,-0.07575 -3.587705,-0.293176 -3.777703,-0.483173 -0.189997,-0.189998 -0.224221,-0.727409 -0.07605,-1.194247 0.257498,-0.811304 0.531447,-0.848992 6.202068,-0.853243 3.262969,-0.0024 6.614524,-0.11715 7.4479,-0.254898 1.481516,-0.24488 1.515229,-0.289732 1.515229,-2.015858 l 0,-1.765407 -7.899255,0 c -8.664162,0 -9.309538,-0.14008 -11.245513,-2.440855 -1.842673,-2.189893 -0.993141,-6.163144 1.567186,-7.329707 0.900179,-0.410149 1.01108,-0.704221 1.01108,-2.681032 0,-1.775939 0.213018,-2.499634 1.064262,-3.615672 1.410423,-1.849161 3.824955,-2.903656 6.674002,-2.914728 2.159517,-0.0084 2.326919,-0.08257 3.084634,-1.366799 0.440658,-0.746859 1.4583,-1.859123 2.261427,-2.471698 5.343829,-4.0759367 13.51919,-2.4437034 16.315267,3.257388 0.956461,1.950185 1.210316,2.188479 2.331392,2.188479 1.898459,0 4.701748,1.086319 6.386125,2.474724 4.062995,3.349064 4.081642,9.060742 0.04045,12.391828 -2.578119,2.125105 -4.374339,2.508072 -11.763545,2.508072 l -6.595028,0 0,1.765407 c 0,1.726126 0.03372,1.770978 1.515229,2.015858 0.833376,0.137748 4.197184,0.252452 7.475129,0.254898 l 5.9599,0.0044 0,1.149828 0,1.149827 -5.151778,0.262748 c -5.036819,0.256884 -17.500369,0.238356 -24.34241,-0.03619 z"
       id="path4804"
       inkscape:connector-curvature="0" />
    <text
       xml:space="preserve"
       style="font-style:normal;font-weight:normal;font-size:18.9353447px;line-height:125%;font-family:sans-serif;letter-spacing:0px;word-spacing:0px;fill:#000000;fill-opacity:1;stroke:none;stroke-width:1px;stroke-linecap:butt;stroke-linejoin:miter;stroke-opacity:1"
       x="20.862875"
       y="30.549618"
       id="text4806"
       sodipodi:linespacing="125%"
       transform="scale(0.98800847,1.0121371)"><tspan
         sodipodi:role="line"
         id="tspan4808"
         x="20.862875"
         y="30.549618">3D</tspan></text>
  </g>
</svg>
